<svg width="64" height="64" viewBox="0 0 64 64" fill="none" xmlns="http://www.w3.org/2000/svg">
<path d="M11.6214 28.5759C11.5556 28.5759 11.4897 28.5101 11.5556 28.4442L12.0165 27.7858C12.0823 27.72 12.1482 27.6541 12.2798 27.6541H20.5761C20.642 27.6541 20.7078 27.72 20.642 27.7858L20.2469 28.3784C20.1811 28.4442 20.1152 28.5101 19.9835 28.5101L11.6214 28.5759ZM8.13169 30.6829C8.06585 30.6829 8 30.6171 8.06585 30.5512L8.52675 29.8928C8.5926 29.827 8.65844 29.7611 8.79013 29.7611H19.391C19.4568 29.7611 19.5226 29.827 19.5226 29.8928L19.3251 30.5512C19.3251 30.6171 19.1934 30.6829 19.1276 30.6829H8.13169ZM13.7284 32.8558C13.6626 32.8558 13.5967 32.7899 13.6626 32.7241L13.9918 32.1315C14.0576 32.0656 14.1235 31.9998 14.2551 31.9998H18.8642C18.93 31.9998 18.9959 32.0656 18.9959 32.1315L18.93 32.6582C18.93 32.7241 18.8642 32.7899 18.7984 32.7899L13.7284 32.8558ZM37.8272 28.115L33.9424 29.1027C33.6132 29.1685 33.5473 29.2344 33.284 28.8393C32.9547 28.4442 32.6914 28.1809 32.1646 27.9833C30.7161 27.259 29.2675 27.4566 27.9506 28.3125C26.3704 29.3002 25.5803 30.8146 25.5803 32.7241C25.5803 34.5677 26.8971 36.0821 28.7407 36.3455C30.321 36.543 31.6379 36.0163 32.6914 34.8311C32.8889 34.5677 33.0864 34.3043 33.3498 33.9751H28.8724C28.4115 33.9751 28.2798 33.6459 28.4115 33.2508C28.7407 32.5265 29.2675 31.3414 29.5967 30.7488C29.6626 30.6171 29.8601 30.3537 30.1893 30.3537H38.6173C38.5514 31.0121 38.5514 31.6047 38.4856 32.2632C38.2222 33.9093 37.6296 35.4895 36.5761 36.8064C34.93 38.9792 32.7572 40.3619 29.9918 40.757C27.6872 41.0862 25.5803 40.6253 23.7366 39.2426C22.0247 37.9257 21.037 36.2138 20.7737 34.1068C20.4444 31.6047 21.2346 29.3002 22.749 27.3249C24.3951 25.1521 26.5679 23.7693 29.2675 23.3084C31.4403 22.9134 33.5473 23.1767 35.391 24.4278C36.642 25.2179 37.4979 26.3372 38.0905 27.72C38.1564 27.9833 38.0905 28.0492 37.8272 28.115Z" fill="#00ACD7"/>
<path d="M45.465 40.9545C43.358 40.8887 41.4486 40.2961 39.8025 38.9134C38.4197 37.7282 37.5638 36.2138 37.3004 34.436C36.9053 31.8023 37.6296 29.4978 39.2099 27.4566C40.9218 25.2179 42.963 24.0986 45.7284 23.5718C48.0988 23.1768 50.3374 23.3743 52.3127 24.757C54.1564 26.008 55.2757 27.72 55.6049 29.9587C56 33.1192 55.0782 35.6212 52.9712 37.7941C51.4568 39.3743 49.5473 40.2961 47.4403 40.757C46.716 40.8887 46.0576 40.8887 45.465 40.9545ZM50.9959 31.6048C50.9959 31.2755 50.9959 31.078 50.93 30.8146C50.535 28.5101 48.428 27.1932 46.1893 27.72C44.0165 28.1809 42.6337 29.5636 42.107 31.7364C41.7119 33.5142 42.5679 35.3578 44.214 36.148C45.465 36.6747 46.7819 36.6089 47.9671 36.0163C49.8765 35.0945 50.8642 33.5801 50.9959 31.6048Z" fill="#00ACD7"/>
</svg>
