<svg width="64" height="64" viewBox="0 0 64 64" fill="none" xmlns="http://www.w3.org/2000/svg">
<g clip-path="url(#clip0_519_500)">
<path d="M31.8729 17.0083C24.2753 17.0083 24.7498 20.2057 24.7498 20.2057L24.7582 23.5182H32.0084V24.5128H21.8785C21.8785 24.5128 17.0168 23.9777 17.0168 31.4172C17.0168 38.8567 21.2602 38.5929 21.2602 38.5929H23.7927V35.1407C23.7927 35.1407 23.6562 31.0227 27.9683 31.0227H35.1591C35.1591 31.0227 39.1992 31.0861 39.1992 27.2334V20.8633C39.1992 20.8633 39.8126 17.0083 31.8729 17.0083ZM27.8751 19.2358C28.5965 19.2358 29.1795 19.8016 29.1795 20.5016C29.1795 21.2016 28.5965 21.7674 27.8751 21.7674C27.1538 21.7674 26.5708 21.2016 26.5708 20.5016C26.5708 19.8016 27.1538 19.2358 27.8751 19.2358Z" fill="url(#paint0_linear_519_500)"/>
<path d="M32.0886 45.9007C39.6861 45.9007 39.2117 42.7033 39.2117 42.7033L39.2032 39.3908H31.9531V38.3962H42.0829C42.0829 38.3962 46.9446 38.9313 46.9446 31.4918C46.9446 24.0523 42.7012 24.3161 42.7012 24.3161H40.1688V27.7683C40.1688 27.7683 40.3053 31.8863 35.9932 31.8863H28.8023C28.8023 31.8863 24.7622 31.8229 24.7622 35.6755V42.0457C24.7622 42.0457 24.1488 45.9007 32.0886 45.9007ZM36.0863 43.6732C35.365 43.6732 34.782 43.1074 34.782 42.4074C34.782 41.7074 35.365 41.1416 36.0863 41.1416C36.8077 41.1416 37.3907 41.7074 37.3907 42.4074C37.3907 43.1074 36.8077 43.6732 36.0863 43.6732Z" fill="url(#paint1_linear_519_500)"/>
</g>
<defs>
<linearGradient id="paint0_linear_519_500" x1="304.629" y1="276.888" x2="1743.71" y2="1744.99" gradientUnits="userSpaceOnUse">
<stop stop-color="#387EB8"/>
<stop offset="1" stop-color="#366994"/>
</linearGradient>
<linearGradient id="paint1_linear_519_500" x1="449.255" y1="468.532" x2="1996.82" y2="1976.03" gradientUnits="userSpaceOnUse">
<stop stop-color="#FFE052"/>
<stop offset="1" stop-color="#FFC331"/>
</linearGradient>
<clipPath id="clip0_519_500">
<rect width="30" height="29" fill="white" transform="translate(17 17)"/>
</clipPath>
</defs>
</svg>
