<svg width="64" height="64" viewBox="0 0 64 64" fill="none" xmlns="http://www.w3.org/2000/svg">
<g clip-path="url(#clip0_519_503)">
<path d="M47 32C47 23.7157 40.2843 17 32 17C23.7157 17 17 23.7157 17 32C17 39.4869 22.4853 45.6925 29.6562 46.8178V36.3359H25.8477V32H29.6562V28.6953C29.6562 24.9359 31.8956 22.8594 35.322 22.8594C36.9631 22.8594 38.6797 23.1523 38.6797 23.1523V26.8438H36.7882C34.9249 26.8438 34.3438 28 34.3438 29.1862V32H38.5039L37.8389 36.3359H34.3438V46.8178C41.5147 45.6925 47 39.4869 47 32Z" fill="#1877F2"/>
<path d="M37.8389 36.3359L38.5039 32H34.3438V29.1862C34.3438 28 34.9249 26.8438 36.7882 26.8438H38.6797V23.1523C38.6797 23.1523 36.9631 22.8594 35.322 22.8594C31.8956 22.8594 29.6562 24.9359 29.6562 28.6953V32H25.8477V36.3359H29.6562V46.8178C30.4199 46.9376 31.2027 47 32 47C32.7973 47 33.5801 46.9376 34.3438 46.8178V36.3359H37.8389Z" fill="white"/>
</g>
<defs>
<clipPath id="clip0_519_503">
<rect width="30" height="30" fill="white" transform="translate(17 17)"/>
</clipPath>
</defs>
</svg>
