<svg width="64" height="64" viewBox="0 0 64 64" fill="none" xmlns="http://www.w3.org/2000/svg">
<g clip-path="url(#clip0_519_450)">
<path d="M47.7794 31.6045L46.4364 30.7731C46.4252 30.6424 46.4126 30.5119 46.3986 30.3816L47.5528 29.3057C47.6097 29.2517 47.652 29.1841 47.6758 29.1093C47.6995 29.0345 47.7039 28.9549 47.6885 28.8779C47.6732 28.801 47.6385 28.7291 47.5879 28.6692C47.5372 28.6092 47.4722 28.5631 47.3989 28.5351L45.9234 27.9831C45.887 27.8554 45.8483 27.7285 45.8074 27.6023L46.728 26.324C46.7741 26.2601 46.8032 26.1855 46.8123 26.1072C46.8215 26.029 46.8104 25.9497 46.7803 25.8769C46.7501 25.8041 46.7018 25.7402 46.64 25.6914C46.5781 25.6426 46.5048 25.6103 46.427 25.5979L44.872 25.3453C44.8113 25.2278 44.7488 25.1113 44.6844 24.9957L45.3377 23.5609C45.3706 23.4894 45.3846 23.4106 45.3782 23.3321C45.3718 23.2536 45.3453 23.178 45.3012 23.1128C45.2572 23.0474 45.1974 22.9943 45.1273 22.9583C45.0572 22.9224 44.9791 22.9049 44.9004 22.9075L43.321 22.9629C43.24 22.8603 43.1567 22.7595 43.0713 22.6605L43.4344 21.1232C43.4523 21.0465 43.4504 20.9666 43.4288 20.8908C43.4072 20.8151 43.3667 20.7462 43.311 20.6905C43.2554 20.6348 43.1864 20.5942 43.1107 20.5726C43.035 20.551 42.955 20.549 42.8784 20.5669L41.3408 20.9301C41.2404 20.8458 41.1392 20.7626 41.037 20.6804L41.0924 19.1011C41.0961 19.022 41.0794 18.9434 41.0438 18.8727C41.0082 18.8021 40.955 18.7418 40.8892 18.6978C40.8235 18.6538 40.7475 18.6276 40.6686 18.6216C40.5897 18.6156 40.5107 18.6301 40.439 18.6637L39.0044 19.3184C38.8881 19.2549 38.7721 19.1915 38.6546 19.1308L38.4009 17.5744C38.3877 17.497 38.3551 17.4242 38.3061 17.3628C38.2572 17.3014 38.1934 17.2534 38.1209 17.2234C38.0483 17.1933 37.9693 17.1821 37.8913 17.1909C37.8133 17.1996 37.7387 17.2281 37.6746 17.2735L36.395 18.1941C36.2688 18.1537 36.1419 18.1154 36.0144 18.0795L35.4624 16.604C35.4344 16.5306 35.3882 16.4656 35.3282 16.4149C35.2683 16.3643 35.1964 16.3296 35.1195 16.3143C35.0425 16.2989 34.9628 16.3033 34.888 16.3271C34.8132 16.3508 34.7456 16.3932 34.6916 16.4501L33.6157 17.6056C33.4854 17.5909 33.3549 17.5783 33.2242 17.5677L32.3928 16.2245C32.3514 16.1575 32.2936 16.1022 32.2249 16.0639C32.1561 16.0255 32.0787 16.0054 32 16.0054C31.9212 16.0054 31.8438 16.0255 31.7751 16.0639C31.7063 16.1022 31.6485 16.1575 31.6072 16.2245L30.7757 17.5676C30.6451 17.5788 30.5146 17.5914 30.3842 17.6055L29.307 16.45C29.2534 16.3923 29.1858 16.3494 29.1109 16.3252C29.0359 16.301 28.956 16.2964 28.8788 16.3118C28.8015 16.3272 28.7295 16.3622 28.6696 16.4133C28.6096 16.4644 28.5638 16.53 28.5364 16.6039L27.9842 18.0792C27.856 18.1157 27.7305 18.1548 27.6036 18.1939L26.3253 17.2735C26.2612 17.2281 26.1867 17.1997 26.1086 17.1909C26.0306 17.1821 25.9516 17.1933 25.879 17.2234C25.8065 17.2535 25.7427 17.3015 25.6938 17.3629C25.6448 17.4243 25.6122 17.4971 25.599 17.5745L25.3453 19.1308C25.2278 19.1915 25.1112 19.254 24.9957 19.3184L23.5608 18.6637C23.4891 18.6309 23.4102 18.617 23.3316 18.6234C23.2531 18.6297 23.1774 18.656 23.1119 18.6999C23.0464 18.7437 22.9932 18.8036 22.9575 18.8738C22.9217 18.9441 22.9044 19.0223 22.9074 19.1011L22.9629 20.6804C22.8601 20.7618 22.7589 20.845 22.6592 20.9301L21.1217 20.5668C21.045 20.5489 20.9651 20.5508 20.8894 20.5724C20.8136 20.594 20.7447 20.6346 20.689 20.6902C20.6333 20.7459 20.5928 20.8149 20.5712 20.8906C20.5496 20.9663 20.5477 21.0463 20.5656 21.1229L20.9273 22.6604C20.8436 22.7604 20.76 22.8616 20.6789 22.9628L19.0996 22.9075C19.0208 22.9044 18.9426 22.9217 18.8724 22.9575C18.8021 22.9933 18.7422 23.0464 18.6984 23.1119C18.6545 23.1774 18.6282 23.2531 18.6219 23.3317C18.6155 23.4102 18.6294 23.4891 18.6622 23.5608L19.3169 24.9956C19.2525 25.1111 19.1899 25.2276 19.1293 25.3452L17.5744 25.5977C17.497 25.6109 17.4242 25.6435 17.3628 25.6925C17.3014 25.7414 17.2534 25.8051 17.2234 25.8777C17.1933 25.9502 17.1821 26.0292 17.1908 26.1072C17.1996 26.1852 17.2279 26.2598 17.2733 26.3239L18.1938 27.6021C18.1538 27.7286 18.1151 27.8555 18.0778 27.9828L16.6025 28.5348C16.5292 28.5628 16.4641 28.6089 16.4134 28.6689C16.3627 28.7288 16.3281 28.8007 16.3127 28.8777C16.2973 28.9547 16.3017 29.0343 16.3255 29.1091C16.3492 29.184 16.3915 29.2516 16.4485 29.3056L17.6026 30.3816C17.588 30.5118 17.5754 30.6423 17.5649 30.7729L16.2218 31.6044C16.1542 31.6452 16.0983 31.7029 16.0595 31.7717C16.0206 31.8405 16.0002 31.9182 16.0002 31.9972C16.0002 32.0762 16.0206 32.1539 16.0595 32.2227C16.0983 32.2915 16.1542 32.3491 16.2218 32.39L17.5649 33.2215C17.5756 33.3524 17.5892 33.4833 17.6026 33.6129L16.4485 34.6901C16.3908 34.7438 16.3479 34.8113 16.3237 34.8863C16.2995 34.9613 16.2949 35.0412 16.3104 35.1184C16.3258 35.1957 16.3608 35.2677 16.4119 35.3276C16.463 35.3876 16.5286 35.4334 16.6025 35.4608L18.0778 36.0129C18.1142 36.1412 18.1534 36.2681 18.1938 36.3936L17.2733 37.6719C17.2267 37.7357 17.1974 37.8105 17.1881 37.889C17.1788 37.9675 17.1899 38.0471 17.2202 38.12C17.2506 38.193 17.2993 38.2569 17.3615 38.3056C17.4238 38.3543 17.4976 38.3862 17.5757 38.3981L19.1306 38.6505C19.1914 38.7679 19.2536 38.884 19.3184 39.0001L18.6637 40.4351C18.6309 40.5067 18.617 40.5856 18.6233 40.6642C18.6297 40.7427 18.656 40.8184 18.6999 40.8839C18.7437 40.9494 18.8036 41.0026 18.8738 41.0384C18.9441 41.0742 19.0223 41.0914 19.101 41.0884L20.6789 41.0331C20.7613 41.1356 20.8436 41.2368 20.9286 41.3367L20.5669 42.8755C20.5489 42.9521 20.5507 43.032 20.5723 43.1077C20.5939 43.1835 20.6345 43.2524 20.6902 43.308C20.746 43.3636 20.815 43.404 20.8907 43.4254C20.9665 43.4468 21.0465 43.4485 21.123 43.4303L22.6604 43.0685C22.7604 43.1536 22.8617 43.2359 22.9642 43.3169L22.9089 44.8963C22.9054 44.9752 22.9223 45.0536 22.958 45.1241C22.9937 45.1946 23.0469 45.2546 23.1126 45.2985C23.1783 45.3423 23.2542 45.3685 23.333 45.3744C23.4118 45.3803 23.4907 45.3658 23.5622 45.3323L24.997 44.6789C25.113 44.7437 25.2292 44.8057 25.3466 44.8665L25.6004 46.4215C25.6134 46.499 25.6458 46.572 25.6947 46.6335C25.7436 46.6951 25.8073 46.7433 25.8799 46.7735C25.9525 46.8037 26.0315 46.815 26.1097 46.8063C26.1878 46.7976 26.2625 46.7693 26.3266 46.7239L27.6049 45.8033C27.7312 45.844 27.8581 45.8827 27.9856 45.9193L28.5376 47.3948C28.5647 47.4689 28.6104 47.5348 28.6703 47.5862C28.7302 47.6376 28.8024 47.6727 28.8798 47.6881C28.9572 47.7036 29.0373 47.6989 29.1123 47.6745C29.1874 47.65 29.2549 47.6067 29.3084 47.5487L30.3856 46.3945C30.5152 46.4093 30.6461 46.4216 30.777 46.4337L31.6085 47.7768C31.6501 47.8435 31.708 47.8985 31.7767 47.9366C31.8454 47.9747 31.9227 47.9947 32.0013 47.9947C32.0799 47.9947 32.1572 47.9747 32.2259 47.9366C32.2946 47.8985 32.3525 47.8435 32.3941 47.7768L33.2256 46.4337C33.3565 46.4216 33.4874 46.4093 33.617 46.3945L34.6929 47.5487C34.7469 47.6056 34.8145 47.6479 34.8893 47.6716C34.9641 47.6954 35.0437 47.6998 35.1207 47.6844C35.1977 47.669 35.2695 47.6344 35.3294 47.5838C35.3894 47.5331 35.4356 47.4681 35.4636 47.3948L36.0157 45.9193C36.1433 45.8829 36.2702 45.8442 36.3964 45.8033L37.6746 46.7239C37.7385 46.7704 37.8133 46.7998 37.8918 46.8091C37.9703 46.8184 38.0499 46.8073 38.1228 46.7769C38.1958 46.7465 38.2597 46.6979 38.3084 46.6356C38.3571 46.5734 38.389 46.4996 38.4009 46.4215L38.6546 44.8665C38.772 44.8057 38.8881 44.7424 39.0042 44.6789L40.4392 45.3323C40.5108 45.3646 40.5894 45.3782 40.6677 45.3718C40.746 45.3653 40.8214 45.3391 40.8868 45.2954C40.9521 45.2518 41.0053 45.1923 41.0413 45.1225C41.0773 45.0526 41.0949 44.9748 41.0925 44.8963L41.0372 43.3169C41.1397 43.2363 41.2405 43.1535 41.3394 43.0685L42.8769 43.4303C42.9534 43.4481 43.0332 43.4461 43.1088 43.4246C43.1843 43.4031 43.2532 43.3626 43.3088 43.3072C43.3644 43.2517 43.405 43.1829 43.4268 43.1074C43.4485 43.0319 43.4507 42.9522 43.433 42.8756L43.0713 41.3367C43.155 41.2368 43.2386 41.1356 43.3197 41.0329L44.899 41.0883C44.9781 41.092 45.0567 41.0753 45.1274 41.0397C45.198 41.0041 45.2583 40.9509 45.3023 40.8851C45.3463 40.8194 45.3725 40.7434 45.3785 40.6645C45.3845 40.5856 45.37 40.5065 45.3364 40.4349L44.683 39.0003C44.7464 38.884 44.8098 38.768 44.8706 38.6505L46.4256 38.3981C46.503 38.3849 46.5758 38.3524 46.6372 38.3034C46.6986 38.2544 46.7466 38.1907 46.7767 38.1181C46.8068 38.0456 46.8179 37.9666 46.8092 37.8885C46.8004 37.8105 46.772 37.7359 46.7266 37.6719L45.8061 36.3936L45.9221 36.0129L47.3976 35.4609C47.4715 35.4335 47.5371 35.3877 47.5882 35.3277C47.6394 35.2678 47.6743 35.1958 47.6897 35.1185C47.7052 35.0412 47.7006 34.9613 47.6763 34.8863C47.6521 34.8113 47.6091 34.7438 47.5514 34.6901L46.3973 33.6129C46.4108 33.4833 46.4242 33.3524 46.435 33.2215L47.7781 32.39C47.8457 32.3491 47.9017 32.2915 47.9405 32.2227C47.9793 32.1539 47.9997 32.0762 47.9997 31.9972C47.9997 31.9182 47.9793 31.8405 47.9405 31.7717C47.9017 31.7029 47.8457 31.6452 47.7781 31.6044L47.7794 31.6045ZM38.791 42.7447C38.5454 42.6907 38.3311 42.5417 38.195 42.3302C38.0589 42.1187 38.012 41.862 38.0646 41.616C38.1172 41.3701 38.265 41.155 38.4758 41.0177C38.6865 40.8804 38.943 40.8321 39.1892 40.8833C39.3131 40.9078 39.4309 40.9567 39.5358 41.0272C39.6406 41.0977 39.7304 41.1883 39.7998 41.2939C39.8693 41.3994 39.9171 41.5177 39.9403 41.6418C39.9636 41.766 39.9619 41.8936 39.9354 42.0171C39.9089 42.1406 39.8581 42.2576 39.7859 42.3613C39.7137 42.465 39.6216 42.5532 39.5149 42.6209C39.4083 42.6887 39.2892 42.7345 39.1647 42.7557C39.0402 42.7769 38.9126 42.7732 38.7896 42.7447H38.791ZM38.3348 39.6591C38.2234 39.6351 38.1085 39.6333 37.9965 39.6539C37.8845 39.6744 37.7776 39.7169 37.682 39.7788C37.5865 39.8408 37.5041 39.921 37.4396 40.0148C37.3751 40.1087 37.3297 40.2143 37.3061 40.3257L36.8297 42.5504C35.3584 43.2184 33.725 43.5897 32.004 43.5897C30.3021 43.5922 28.6204 43.2217 27.0772 42.5044L26.6006 40.2799C26.5771 40.1685 26.5317 40.0629 26.4672 39.9691C26.4027 39.8753 26.3202 39.7952 26.2247 39.7334C26.1291 39.6716 26.0222 39.6293 25.9102 39.6088C25.7983 39.5884 25.6833 39.5904 25.5721 39.6145L23.6081 40.0356C23.2432 39.6598 22.904 39.2598 22.593 38.8383H32.1498C32.2578 38.8383 32.3306 38.8195 32.3306 38.7209V35.3396C32.3306 35.2409 32.2592 35.2221 32.1498 35.2221H29.3544V33.0785H32.378C32.6533 33.0785 33.8533 33.1568 34.2366 34.6903C34.3568 35.1613 34.62 36.6961 34.8009 37.1875C34.9804 37.7381 35.712 38.8383 36.4922 38.8383H41.2544C41.3124 38.8375 41.3702 38.8316 41.4272 38.8208C41.097 39.2694 40.7352 39.6938 40.3446 40.0909L38.3348 39.6591ZM25.1158 42.6988C24.9928 42.7273 24.8653 42.7311 24.7407 42.7098C24.6162 42.6886 24.4971 42.6428 24.3905 42.5751C24.2838 42.5074 24.1917 42.4191 24.1195 42.3154C24.0473 42.2117 23.9965 42.0947 23.97 41.9712C23.9435 41.8477 23.9418 41.7201 23.9651 41.596C23.9884 41.4718 24.0361 41.3535 24.1056 41.248C24.175 41.1425 24.2648 41.0518 24.3696 40.9813C24.4745 40.9109 24.5923 40.8619 24.7162 40.8375C24.9613 40.789 25.2155 40.8389 25.4242 40.9762C25.6328 41.1135 25.7791 41.3274 25.8316 41.5716C25.884 41.8158 25.8384 42.0708 25.7045 42.2817C25.5706 42.4926 25.3592 42.6424 25.1158 42.6988ZM21.4902 27.9964C21.5452 28.1112 21.5766 28.2358 21.5826 28.363C21.5886 28.4901 21.569 28.6171 21.525 28.7366C21.481 28.856 21.4135 28.9654 21.3264 29.0583C21.2394 29.1511 21.1346 29.2256 21.0183 29.2773C20.902 29.3289 20.7765 29.3567 20.6492 29.359C20.5219 29.3613 20.3955 29.338 20.2774 29.2906C20.1593 29.2432 20.0519 29.1725 19.9616 29.0828C19.8713 28.9932 19.7999 28.8863 19.7516 28.7685C19.6579 28.5395 19.6572 28.2829 19.7496 28.0533C19.8419 27.8238 20.0201 27.6392 20.2463 27.5387C20.4724 27.4383 20.7288 27.43 20.9611 27.5154C21.1933 27.6009 21.3831 27.7733 21.4902 27.9964ZM20.3766 30.6381L22.4229 29.7283C22.527 29.682 22.621 29.6158 22.6994 29.5332C22.7779 29.4506 22.8393 29.3534 22.8802 29.2471C22.921 29.1408 22.9405 29.0275 22.9376 28.9136C22.9346 28.7998 22.9092 28.6876 22.8629 28.5836L22.4418 27.6307H24.0994V35.1007H20.7558C20.3435 33.6509 20.2152 32.1351 20.378 30.6367L20.3766 30.6381ZM29.3557 29.9132V27.7116H33.3025C33.5065 27.7116 34.7414 27.9479 34.7414 28.8712C34.7414 29.6379 33.7938 29.9132 33.015 29.9132H29.3557ZM43.6989 31.8948C43.6989 32.1864 43.6882 32.4765 43.6665 32.7628H42.4665C42.3465 32.7628 42.2978 32.8409 42.2978 32.9597V33.5104C42.2978 34.8077 41.5662 35.0899 40.925 35.1613C40.3149 35.2303 39.6386 34.9063 39.555 34.5324C39.1945 32.5076 38.5953 32.0743 37.6477 31.3279C38.8233 30.5813 40.0464 29.4799 40.0464 28.0059C40.0464 26.4144 38.9544 25.4115 38.2105 24.9188C37.1672 24.2304 36.0117 24.0928 35.6998 24.0928H23.2909C25.0059 22.1752 27.3056 20.877 29.8336 20.3996L31.2968 21.9343C31.3752 22.0167 31.4691 22.0829 31.5731 22.129C31.6771 22.1751 31.7893 22.2002 31.903 22.2028C32.0168 22.2054 32.1299 22.1856 32.236 22.1444C32.342 22.1032 32.4389 22.0414 32.521 21.9627L34.157 20.3969C35.8252 20.7098 37.4052 21.3818 38.7877 22.3663C40.1701 23.3509 41.3218 24.6244 42.1629 26.0985L41.0425 28.6295C40.9497 28.8397 40.9438 29.0781 41.0263 29.2926C41.1087 29.5071 41.2728 29.6802 41.4825 29.7741L43.6396 30.7325C43.6773 31.1159 43.6962 31.5019 43.6962 31.8948H43.6989ZM31.2981 19.0957C31.4805 18.9217 31.7245 18.8273 31.9765 18.8333C32.1013 18.8362 32.2243 18.8637 32.3385 18.9142C32.4526 18.9647 32.5557 19.0371 32.6418 19.1275C32.728 19.2178 32.7955 19.3242 32.8405 19.4406C32.8856 19.557 32.9072 19.6811 32.9043 19.8059C32.9013 19.9307 32.8738 20.0536 32.8234 20.1678C32.7729 20.2819 32.7004 20.385 32.6101 20.4712C32.4253 20.6308 32.1861 20.7132 31.9422 20.7013C31.6983 20.6895 31.4682 20.5844 31.2997 20.4077C31.1311 20.231 31.037 19.9962 31.0367 19.752C31.0364 19.5078 31.13 19.2728 31.2981 19.0957ZM42.4166 28.0424C42.467 27.9282 42.5393 27.8252 42.6296 27.739C42.7198 27.6529 42.8262 27.5855 42.9426 27.5406C43.059 27.4957 43.1831 27.4742 43.3078 27.4774C43.4325 27.4805 43.5554 27.5083 43.6693 27.5591C43.8416 27.6351 43.9874 27.7605 44.0884 27.9194C44.1893 28.0784 44.2409 28.2637 44.2365 28.4519C44.2321 28.6401 44.1719 28.8228 44.0636 28.9769C43.9554 29.1309 43.8038 29.2494 43.6282 29.3173C43.4526 29.3851 43.2607 29.3994 43.077 29.3582C42.8933 29.317 42.7259 29.2223 42.596 29.0859C42.4662 28.9496 42.3797 28.7778 42.3475 28.5922C42.3154 28.4067 42.3389 28.2158 42.4153 28.0437L42.4166 28.0424Z" fill="#D13333"/>
</g>
<defs>
<clipPath id="clip0_519_450">
<rect width="32" height="32" fill="white" transform="translate(16 16)"/>
</clipPath>
</defs>
</svg>
