<svg width="64" height="64" viewBox="0 0 64 64" fill="none" xmlns="http://www.w3.org/2000/svg">
<g clip-path="url(#clip0_519_446)">
<path d="M17 17H47V47H17" fill="#F7DF1E"/>
<path d="M35.9844 38.6797C36.6484 39.8125 37.5273 40.3789 38.6211 40.3789C39.9883 40.3789 40.6719 39.8516 40.6719 38.7969C40.6719 38.1523 39.793 37.5664 38.3867 36.9805C35.7695 36.1211 34.4805 34.6562 34.5195 32.5859C34.5195 30.4766 36.1016 28.8359 38.6211 28.8359C40.4961 28.8359 41.8242 29.5977 42.6055 31.1211L40.4375 32.5273C39.9688 31.668 39.3633 31.2578 38.6211 31.2969C37.7617 31.3359 37.3125 31.7461 37.2734 32.5273C37.2734 33.3477 37.8008 33.6992 39.5586 34.4609C42.0781 35.457 43.4844 36.5703 43.4844 38.9727C43.3672 41.5117 41.8242 42.8203 38.8555 42.8984C36.3945 42.8984 34.6563 41.9414 33.6406 40.0273L35.9844 38.6797ZM26.0234 38.9141C26.4922 39.6758 26.7852 40.3789 27.957 40.3789C28.8945 40.3789 29.3633 39.793 29.3633 38.6211V28.8945H32.1758V38.5039C32.1367 41.2773 30.7305 42.6836 27.957 42.7227C25.8867 42.6836 24.4805 41.8242 23.7383 40.1445L26.0234 38.9141Z" fill="black"/>
</g>
<defs>
<clipPath id="clip0_519_446">
<rect width="30" height="30" fill="white" transform="translate(17 17)"/>
</clipPath>
</defs>
</svg>
