<svg width="64" height="64" viewBox="0 0 64 64" fill="none" xmlns="http://www.w3.org/2000/svg">
<g clip-path="url(#clip0_519_448)">
<mask id="mask0_519_448" style="mask-type:luminance" maskUnits="userSpaceOnUse" x="12" y="21" width="40" height="21">
<path d="M12 31.623C12 37.354 20.9544 42 31.9999 42C43.0453 42 51.9997 37.354 51.9997 31.623C51.9997 25.8921 43.0453 21.2461 31.9999 21.2461C20.9544 21.2461 12 25.8922 12 31.623Z" fill="white"/>
</mask>
<g mask="url(#mask0_519_448)">
<path d="M12 31.623C12 37.354 20.9544 42 31.9999 42C43.0453 42 51.9997 37.354 51.9997 31.623C51.9997 25.8921 43.0453 21.2461 31.9999 21.2461C20.9544 21.2461 12 25.8922 12 31.623Z" fill="url(#paint0_radial_519_448)"/>
</g>
<mask id="mask1_519_448" style="mask-type:luminance" maskUnits="userSpaceOnUse" x="11" y="20" width="42" height="24">
<path d="M11.1667 20.0646H52.8331V43.1816H11.1667V20.0646Z" fill="white"/>
</mask>
<g mask="url(#mask1_519_448)">
<path d="M31.9999 41.2295C42.614 41.2295 51.2185 36.9286 51.2185 31.6231C51.2185 26.3176 42.614 22.0167 31.9999 22.0167C21.3858 22.0167 12.7812 26.3176 12.7812 31.6231C12.7812 36.9286 21.3858 41.2295 31.9999 41.2295Z" fill="#777BB3"/>
</g>
<mask id="mask2_519_448" style="mask-type:luminance" maskUnits="userSpaceOnUse" x="11" y="20" width="42" height="24">
<path d="M11.1667 20.0646H52.8331V43.1816H11.1667V20.0646Z" fill="white"/>
</mask>
<g mask="url(#mask2_519_448)">
<path d="M22.866 32.8144C23.7387 32.8144 24.3903 32.6557 24.8025 32.3428C25.2103 32.0331 25.492 31.4965 25.6396 30.7479C25.7773 30.0483 25.7248 29.5598 25.4838 29.2961C25.2374 29.0269 24.7045 28.8903 23.9001 28.8903H22.5055L21.7322 32.8145H22.8659L22.866 32.8144ZM18.3041 37.6483C18.2394 37.6483 18.1779 37.6198 18.1367 37.5704C18.1164 37.546 18.1017 37.5175 18.0938 37.4869C18.086 37.4564 18.085 37.4244 18.0911 37.3934L20.1403 26.9944C20.1499 26.9456 20.1765 26.9017 20.2153 26.8701C20.2542 26.8385 20.303 26.8212 20.3533 26.8212H24.7698C26.1579 26.8212 27.191 27.1922 27.8404 27.9262C28.4932 28.6632 28.6948 29.6936 28.4395 30.9885C28.3356 31.516 28.157 32.0059 27.9086 32.4447C27.6597 32.8838 27.331 33.2902 26.9313 33.6526C26.4527 34.0944 25.911 34.4148 25.3228 34.6033C24.7439 34.7893 24.0005 34.8837 23.113 34.8837H21.3247L20.814 37.4752C20.8044 37.524 20.7779 37.5679 20.739 37.5995C20.7002 37.6311 20.6514 37.6484 20.601 37.6484H18.3041V37.6483Z" fill="black"/>
<path d="M22.6845 29.1042H23.9003C24.8711 29.1042 25.2084 29.3143 25.323 29.4395C25.5131 29.6474 25.549 30.0858 25.4268 30.7072C25.2895 31.4028 25.035 31.8961 24.6703 32.173C24.2969 32.4566 23.6898 32.6003 22.8662 32.6003H21.9956L22.6845 29.1042ZM24.77 26.607H20.3535C20.2528 26.607 20.1552 26.6415 20.0775 26.7047C19.9997 26.7679 19.9467 26.8558 19.9275 26.9534L17.8783 37.3526C17.8661 37.4146 17.868 37.4784 17.8837 37.5396C17.8995 37.6008 17.9288 37.6578 17.9695 37.7065C18.0102 37.7552 18.0613 37.7945 18.1192 37.8214C18.1771 37.8483 18.2403 37.8623 18.3043 37.8623H20.601C20.7018 37.8623 20.7994 37.8277 20.8771 37.7645C20.9549 37.7013 21.0079 37.6134 21.0271 37.5159L21.5037 35.0975H23.1132C24.0233 35.0975 24.7895 34.9996 25.3904 34.8067C26.0081 34.6087 26.5767 34.273 27.0797 33.8089C27.4958 33.4313 27.8393 33.0075 28.0982 32.5491C28.3572 32.0907 28.5446 31.5792 28.6529 31.0292C28.9217 29.6662 28.7033 28.5747 28.0041 27.7853C27.3116 27.0035 26.2235 26.607 24.7701 26.607M21.4692 33.0284H22.8662C23.7921 33.0284 24.4819 32.8565 24.9351 32.5123C25.3882 32.1681 25.694 31.5937 25.8529 30.7887C26.0048 30.0159 25.9356 29.4705 25.6453 29.1527C25.3549 28.8349 24.7729 28.6761 23.9005 28.6761H22.3269L21.4692 33.0284M24.7702 27.0351C26.0988 27.0351 27.0681 27.379 27.6773 28.0668C28.2865 28.7546 28.4699 29.7148 28.2269 30.9475C28.1268 31.4553 27.9576 31.9195 27.7194 32.3402C27.4812 32.7609 27.1695 33.1459 26.7847 33.4949C26.326 33.9182 25.8166 34.2198 25.256 34.3996C24.6953 34.5798 23.9814 34.6694 23.1133 34.6694H21.146L20.6013 37.4342H18.3046L20.3535 27.0351H24.7701" fill="white"/>
<path d="M33.7058 34.8832C33.6409 34.8832 33.5795 34.8547 33.5384 34.8053C33.4972 34.7559 33.4804 34.6912 33.4928 34.6284L34.3992 30.0271C34.4854 29.5895 34.4641 29.2754 34.3394 29.1427C34.263 29.0616 34.0335 28.9255 33.3551 28.9255H31.7129L30.5732 34.7099C30.5636 34.7587 30.5371 34.8027 30.4982 34.8343C30.4593 34.8659 30.4105 34.8832 30.3601 34.8832H28.0815C28.0495 34.8832 28.0179 34.8762 27.989 34.8627C27.96 34.8492 27.9344 34.8296 27.9141 34.8053C27.8937 34.7809 27.8791 34.7524 27.8712 34.7218C27.8633 34.6912 27.8624 34.6593 27.8685 34.6283L29.9177 24.2292C29.9273 24.1805 29.9538 24.1365 29.9927 24.1049C30.0315 24.0733 30.0803 24.0561 30.1307 24.0561H32.4093C32.4413 24.0561 32.4729 24.063 32.5019 24.0765C32.5308 24.09 32.5564 24.1096 32.5768 24.1339C32.5971 24.1583 32.6118 24.1868 32.6197 24.2174C32.6275 24.248 32.6285 24.2799 32.6224 24.3109L32.1279 26.8208H33.8945C35.2403 26.8208 36.1529 27.0548 36.6845 27.5363C37.2271 28.0275 37.3954 28.8127 37.1871 29.8708L36.2337 34.7101C36.2241 34.7588 36.1976 34.8028 36.1587 34.8344C36.1198 34.866 36.071 34.8833 36.0206 34.8833H33.7058L33.7058 34.8832Z" fill="black"/>
<path d="M32.4093 23.842H30.1307C30.0299 23.842 29.9323 23.8765 29.8546 23.9397C29.7768 24.0029 29.7238 24.0908 29.7046 24.1884L27.6554 34.5875C27.6432 34.6494 27.6451 34.7133 27.6608 34.7745C27.6766 34.8357 27.7059 34.8927 27.7466 34.9414C27.7873 34.9901 27.8385 35.0293 27.8964 35.0563C27.9543 35.0832 28.0175 35.0972 28.0815 35.0972H30.3601C30.4609 35.0972 30.5585 35.0626 30.6362 34.9994C30.7139 34.9362 30.767 34.8483 30.7862 34.7508L31.8917 29.1395H33.3551C34.0324 29.1395 34.1746 29.2822 34.1803 29.2884C34.2214 29.3319 34.2754 29.5338 34.1862 29.9862L33.2798 34.5875C33.2676 34.6494 33.2694 34.7133 33.2852 34.7745C33.301 34.8357 33.3303 34.8927 33.371 34.9414C33.4117 34.9901 33.4628 35.0293 33.5207 35.0563C33.5786 35.0832 33.6419 35.0972 33.7059 35.0972H36.0207C36.1214 35.0972 36.219 35.0626 36.2968 34.9994C36.3745 34.9362 36.4275 34.8483 36.4467 34.7508L37.4002 29.9115C37.6239 28.7757 37.4325 27.9235 36.8316 27.3787C36.2581 26.8592 35.2974 26.6067 33.8947 26.6067H32.3912L32.8356 24.3517C32.8478 24.2897 32.846 24.2258 32.8302 24.1646C32.8144 24.1034 32.7852 24.0464 32.7444 23.9977C32.7037 23.949 32.6526 23.9097 32.5947 23.8828C32.5368 23.8559 32.4735 23.8419 32.4095 23.8419M32.4095 24.27L31.8648 27.0348H33.8948C35.172 27.0348 36.053 27.2547 36.538 27.6939C37.0229 28.1331 37.168 28.8454 36.9743 29.8299L36.0209 34.6691H33.7061L34.6125 30.0679C34.7156 29.5445 34.6777 29.1875 34.4986 28.9971C34.3195 28.8068 33.9383 28.7115 33.3553 28.7115H31.534L30.3603 34.6691H28.0816L30.1308 24.27H32.4094" fill="white"/>
<path d="M40.7924 32.8144C41.6652 32.8144 42.3167 32.6557 42.7289 32.3428C43.1367 32.0331 43.4184 31.4966 43.5661 30.7479C43.7038 30.0483 43.6513 29.5598 43.4102 29.2961C43.1638 29.0269 42.6309 28.8903 41.8266 28.8903H40.4319L39.6586 32.8145H40.7923L40.7924 32.8144ZM36.2307 37.6483C36.1659 37.6483 36.1044 37.6198 36.0633 37.5704C36.0429 37.546 36.0283 37.5175 36.0204 37.487C36.0125 37.4564 36.0115 37.4244 36.0176 37.3934L38.0668 26.9944C38.0764 26.9456 38.103 26.9016 38.1418 26.87C38.1807 26.8384 38.2295 26.8212 38.2799 26.8212H42.6963C44.0845 26.8212 45.1175 27.1922 45.7669 27.9262C46.4198 28.6632 46.6212 29.6935 46.3661 30.9885C46.2621 31.516 46.0835 32.0059 45.835 32.4447C45.5862 32.8838 45.2575 33.2902 44.8577 33.6526C44.3791 34.0944 43.8375 34.4148 43.2492 34.6033C42.6703 34.7893 41.9269 34.8837 41.0395 34.8837H39.2509L38.7404 37.4752C38.7308 37.524 38.7043 37.568 38.6654 37.5996C38.6265 37.6312 38.5777 37.6485 38.5273 37.6484H36.2306L36.2307 37.6483Z" fill="black"/>
<path d="M40.6109 29.1042H41.8268C42.7976 29.1042 43.1349 29.3143 43.2495 29.4395C43.4397 29.6474 43.4755 30.0858 43.3533 30.7071C43.216 31.4027 42.9614 31.8961 42.5968 32.173C42.2233 32.4566 41.6163 32.6003 40.7927 32.6003H39.9222L40.6109 29.1042ZM42.6964 26.607H38.2799C38.1792 26.607 38.0816 26.6415 38.0039 26.7047C37.9262 26.7679 37.8732 26.8558 37.8539 26.9534L35.8048 37.3526C35.7926 37.4146 35.7945 37.4784 35.8102 37.5396C35.826 37.6008 35.8553 37.6578 35.896 37.7065C35.9367 37.7552 35.9878 37.7945 36.0457 37.8214C36.1036 37.8483 36.1668 37.8623 36.2308 37.8623H38.5275C38.6283 37.8623 38.7259 37.8277 38.8036 37.7645C38.8814 37.7013 38.9344 37.6134 38.9536 37.5159L39.4301 35.0975H41.0396C41.9498 35.0975 42.716 34.9996 43.3168 34.8067C43.9346 34.6087 44.5031 34.273 45.0063 33.8088C45.4224 33.4313 45.765 33.0075 46.0247 32.5491C46.2844 32.0907 46.471 31.5792 46.5794 31.0292C46.8481 29.6661 46.6298 28.5746 45.9305 27.7852C45.2381 27.0035 44.1501 26.607 42.6966 26.607M39.3957 33.0284H40.7927C41.7186 33.0284 42.4084 32.8565 42.8615 32.5123C43.3146 32.1681 43.6205 31.5937 43.7793 30.7887C43.9314 30.0159 43.8622 29.4705 43.5717 29.1527C43.2813 28.8349 42.6993 28.6761 41.8269 28.6761H40.2533L39.3957 33.0284M42.6966 27.0351C44.0253 27.0351 44.9945 27.379 45.6037 28.0668C46.213 28.7546 46.3963 29.7148 46.1533 30.9475C46.0533 31.4553 45.8841 31.9195 45.6458 32.3402C45.4076 32.7609 45.0959 33.1459 44.7111 33.4949C44.2525 33.9182 43.743 34.2198 43.1824 34.3996C42.6218 34.5798 41.9078 34.6694 41.0398 34.6694H39.0725L38.5278 37.4342H36.231L38.2802 27.0351H42.6967" fill="white"/>
</g>
</g>
<defs>
<radialGradient id="paint0_radial_519_448" cx="0" cy="0" r="1" gradientUnits="userSpaceOnUse" gradientTransform="translate(24.008 24.8943) scale(26.2627 25.9037)">
<stop stop-color="#AEB2D5"/>
<stop offset="0.3" stop-color="#AEB2D5"/>
<stop offset="0.75" stop-color="#484C89"/>
<stop offset="1" stop-color="#484C89"/>
</radialGradient>
<clipPath id="clip0_519_448">
<rect width="40" height="40" fill="white" transform="translate(12 12)"/>
</clipPath>
</defs>
</svg>
